<svg width="113" height="19" viewBox="0 0 113 19" fill="none" xmlns="http://www.w3.org/2000/svg">
<path d="M15.1972 1.152V18H11.0932V11.064H4.70919V18H0.605188V1.152H4.70919V7.752H11.0932V1.152H15.1972ZM30.7839 11.088C30.7839 11.472 30.7599 11.872 30.7119 12.288H21.4239C21.4879 13.12 21.7519 13.76 22.2159 14.208C22.6959 14.64 23.2799 14.856 23.9679 14.856C24.9919 14.856 25.7039 14.424 26.1039 13.56H30.4719C30.2479 14.44 29.8399 15.232 29.2479 15.936C28.6719 16.64 27.9439 17.192 27.0639 17.592C26.1839 17.992 25.1999 18.192 24.1119 18.192C22.7999 18.192 21.6319 17.912 20.6079 17.352C19.5839 16.792 18.7839 15.992 18.2079 14.952C17.6319 13.912 17.3439 12.696 17.3439 11.304C17.3439 9.912 17.6239 8.696 18.1839 7.656C18.7599 6.616 19.5599 5.816 20.5839 5.256C21.6079 4.696 22.7839 4.416 24.1119 4.416C25.4079 4.416 26.5599 4.688 27.5679 5.232C28.5759 5.776 29.3599 6.552 29.9199 7.56C30.4959 8.568 30.7839 9.744 30.7839 11.088ZM26.5839 10.008C26.5839 9.304 26.3439 8.744 25.8639 8.328C25.3839 7.912 24.7839 7.704 24.0639 7.704C23.3759 7.704 22.7919 7.904 22.3119 8.304C21.8479 8.704 21.5599 9.272 21.4479 10.008H26.5839ZM37.0529 6.84C37.5329 6.104 38.1329 5.528 38.8529 5.112C39.5729 4.68 40.3729 4.464 41.2529 4.464V8.808H40.1249C39.1009 8.808 38.3329 9.032 37.8209 9.48C37.3089 9.912 37.0529 10.68 37.0529 11.784V18H32.9489V4.608H37.0529V6.84ZM55.8386 11.088C55.8386 11.472 55.8146 11.872 55.7666 12.288H46.4786C46.5426 13.12 46.8066 13.76 47.2706 14.208C47.7506 14.64 48.3346 14.856 49.0226 14.856C50.0466 14.856 50.7586 14.424 51.1586 13.56H55.5266C55.3026 14.44 54.8946 15.232 54.3026 15.936C53.7266 16.64 52.9986 17.192 52.1186 17.592C51.2386 17.992 50.2546 18.192 49.1666 18.192C47.8546 18.192 46.6866 17.912 45.6626 17.352C44.6386 16.792 43.8386 15.992 43.2626 14.952C42.6866 13.912 42.3986 12.696 42.3986 11.304C42.3986 9.912 42.6786 8.696 43.2386 7.656C43.8146 6.616 44.6146 5.816 45.6386 5.256C46.6626 4.696 47.8386 4.416 49.1666 4.416C50.4626 4.416 51.6146 4.688 52.6226 5.232C53.6306 5.776 54.4146 6.552 54.9746 7.56C55.5506 8.568 55.8386 9.744 55.8386 11.088ZM51.6386 10.008C51.6386 9.304 51.3986 8.744 50.9186 8.328C50.4386 7.912 49.8386 7.704 49.1186 7.704C48.4306 7.704 47.8466 7.904 47.3666 8.304C46.9026 8.704 46.6146 9.272 46.5026 10.008H51.6386ZM70.8436 6.576C70.8436 7.552 70.6196 8.448 70.1716 9.264C69.7236 10.064 69.0356 10.712 68.1076 11.208C67.1796 11.704 66.0276 11.952 64.6516 11.952H62.1076V18H58.0036V1.152H64.6516C65.9956 1.152 67.1316 1.384 68.0596 1.848C68.9876 2.312 69.6836 2.952 70.1476 3.768C70.6116 4.584 70.8436 5.52 70.8436 6.576ZM64.3396 8.688C65.1236 8.688 65.7076 8.504 66.0916 8.136C66.4756 7.768 66.6676 7.248 66.6676 6.576C66.6676 5.904 66.4756 5.384 66.0916 5.016C65.7076 4.648 65.1236 4.464 64.3396 4.464H62.1076V8.688H64.3396ZM72.1642 11.28C72.1642 9.904 72.4202 8.696 72.9322 7.656C73.4602 6.616 74.1722 5.816 75.0682 5.256C75.9642 4.696 76.9642 4.416 78.0682 4.416C79.0122 4.416 79.8362 4.608 80.5402 4.992C81.2602 5.376 81.8122 5.88 82.1962 6.504V4.608H86.3002V18H82.1962V16.104C81.7962 16.728 81.2362 17.232 80.5162 17.616C79.8122 18 78.9882 18.192 78.0442 18.192C76.9562 18.192 75.9642 17.912 75.0682 17.352C74.1722 16.776 73.4602 15.968 72.9322 14.928C72.4202 13.872 72.1642 12.656 72.1642 11.28ZM82.1962 11.304C82.1962 10.28 81.9082 9.472 81.3322 8.88C80.7722 8.288 80.0842 7.992 79.2682 7.992C78.4522 7.992 77.7562 8.288 77.1802 8.88C76.6202 9.456 76.3402 10.256 76.3402 11.28C76.3402 12.304 76.6202 13.12 77.1802 13.728C77.7562 14.32 78.4522 14.616 79.2682 14.616C80.0842 14.616 80.7722 14.32 81.3322 13.728C81.9082 13.136 82.1962 12.328 82.1962 11.304ZM93.3733 6.84C93.8533 6.104 94.4533 5.528 95.1733 5.112C95.8933 4.68 96.6933 4.464 97.5733 4.464V8.808H96.4453C95.4213 8.808 94.6533 9.032 94.1413 9.48C93.6293 9.912 93.3733 10.68 93.3733 11.784V18H89.2693V4.608H93.3733V6.84ZM107.719 18L103.639 12.384V18H99.5349V0.24H103.639V10.056L107.695 4.608H112.759L107.191 11.328L112.807 18H107.719Z" fill="url(#paint0_linear_39_6)"/>
<defs>
<linearGradient id="paint0_linear_39_6" x1="-9" y1="11" x2="121" y2="11" gradientUnits="userSpaceOnUse">
<stop stop-color="#FC8701"/>
<stop offset="1" stop-color="#FF1D1D"/>
</linearGradient>
</defs>
</svg>
