<svg width="28" height="16" viewBox="0 0 28 16" fill="none" xmlns="http://www.w3.org/2000/svg">
    <path d="M13.376 -3.0756e-05V15.444H9.61399V9.08597H3.76199V15.444H-1.36122e-05V-3.0756e-05H3.76199V6.04997H9.61399V-3.0756e-05H13.376ZM27.8618 4.97197C27.8618 5.86664 27.6564 6.68797 27.2458 7.43597C26.8351 8.1693 26.2045 8.7633 25.3538 9.21797C24.5031 9.67264 23.4471 9.89997 22.1858 9.89997H19.8538V15.444H16.0918V-3.0756e-05H22.1858C23.4178 -3.0756e-05 24.4591 0.212636 25.3098 0.637969C26.1605 1.0633 26.7985 1.64997 27.2238 2.39797C27.6491 3.14597 27.8618 4.00397 27.8618 4.97197ZM21.8998 6.90797C22.6185 6.90797 23.1538 6.7393 23.5058 6.40197C23.8578 6.06464 24.0338 5.58797 24.0338 4.97197C24.0338 4.35597 23.8578 3.8793 23.5058 3.54197C23.1538 3.20464 22.6185 3.03597 21.8998 3.03597H19.8538V6.90797H21.8998Z" fill="url(#paint0_linear_190_4)"/>
    <defs>
        <linearGradient id="paint0_linear_190_4" x1="-2.45386" y1="7.44397" x2="29.5461" y2="7.44397" gradientUnits="userSpaceOnUse">
            <stop stop-color="#FC8701"/>
            <stop offset="1" stop-color="#FF1D1D"/>
        </linearGradient>
    </defs>
</svg>
